<svg xmlns="http://www.w3.org/2000/svg" viewBox="0 0 24 24" fill="none" stroke="hsl(230,80%,62%)" stroke-width="2" stroke-linecap="round" stroke-linejoin="round">
  <rect width="24" height="24" rx="5" fill="hsl(222,47%,8%)" stroke="none"/>
  <g transform="translate(2 2) scale(0.83)">
    <!-- lucide shield -->
    <path d="M20 13c0 5-3.5 7.5-7.66 8.95a1 1 0 0 1-.67-.01C7.5 20.5 4 18 4 13V6a1 1 0 0 1 1-1c2 0 4.5-1.2 6.24-2.72a1.17 1.17 0 0 1 1.52 0C14.51 3.81 17 5 19 5a1 1 0 0 1 1 1z"/>
  </g>
  <!-- lucide radar (smaller, bottom-right accent) -->
  <g transform="translate(13 13) scale(0.45)" stroke="hsl(270,60%,58%)">
    <path d="M19.07 4.93A10 10 0 0 0 6.99 3.34"/>
    <path d="M4 6h.01"/>
    <path d="M2.29 9.62A10 10 0 1 0 21.31 8.35"/>
    <path d="M16.24 7.76A6 6 0 1 0 17.34 14"/>
    <path d="M12 18h.01"/>
    <path d="M17.99 11.66A6 6 0 0 1 15.77 16.67"/>
    <circle cx="12" cy="12" r="2"/>
    <path d="m13.41 10.59 5.66-5.66"/>
  </g>
</svg>
